# xmcd
#
# Track frame offsets: 
#        150
#        7371
#        30338
#        57715
#        78963
#        100590
#        126921
#        145998
#        165894
#        200661
#        215047
#        230017
#        269661
#
# Disc length: 3884 seconds
#
# Revision: 0
# Processed by: cddbd v1.5.2PL0 Copyright (c) Steve Scherf et al.
# Submitted via: ExactAudioCopy v1.3
#
DISCID=be0f2a0d
DTITLE=Budda Power Blues - One in a Million
DYEAR=2014
DGENRE=Blues
TTITLE0=Intro
TTITLE1=One in a Million
TTITLE2=Verdes Anos
TTITLE3=She's Gone
TTITLE4=I'll Treat You Good If You Treat Me Bad
TTITLE5=Sad and Lonely
TTITLE6=Love and Hate
TTITLE7=Will to Live
TTITLE8=I Had a Woman but She Left Me
TTITLE9=Living and Lovin the Blues
TTITLE10=Early This Morning
TTITLE11=Blue Town
TTITLE12=Tell Me What I'd Love to Hear
EXTD=
EXTT0=
EXTT1=
EXTT2=
EXTT3=
EXTT4=
EXTT5=
EXTT6=
EXTT7=
EXTT8=
EXTT9=
EXTT10=
EXTT11=
EXTT12=
PLAYORDER=
